<?xml version="1.0" standalone="no"?>
<!DOCTYPE svg PUBLIC "-//W3C//DTD SVG 20010904//EN"
 "http://www.w3.org/TR/2001/REC-SVG-20010904/DTD/svg10.dtd">
<svg version="1.0" xmlns="http://www.w3.org/2000/svg"
 width="458.000000pt" height="119.000000pt" viewBox="0 0 458.000000 119.000000"
 preserveAspectRatio="xMidYMid meet">

<g transform="translate(0.000000,119.000000) scale(0.100000,-0.100000)"
fill="#000000" stroke="none">
<path d="M0 595 l0 -595 419 0 c231 0 422 4 425 9 3 4 2 11 -2 15 -11 12 -9
138 3 141 5 2 22 6 38 9 15 4 27 11 27 17 0 6 -6 7 -12 3 -10 -5 -10 -4 -1 6
6 7 30 13 52 13 23 0 42 6 45 14 3 7 18 13 33 13 15 0 63 9 105 20 97 24 134
28 333 35 88 3 185 8 215 10 93 6 478 22 625 25 17 1 57 -2 91 -6 41 -4 79 -1
122 10 44 11 69 13 89 6 16 -6 78 -8 143 -5 63 3 131 5 150 5 32 -1 360 -1
769 -1 122 0 158 3 177 16 13 8 24 22 24 29 0 8 6 16 12 19 10 3 8 9 -4 24
-21 23 -23 40 -6 45 6 2 11 24 11 51 0 59 -24 95 -81 122 -23 11 -42 23 -42
28 0 4 4 6 9 3 11 -7 41 88 41 133 0 106 -84 219 -194 260 -66 24 -68 23 -86
-39 -44 -148 -1 -289 106 -345 l40 -21 -45 -11 c-27 -6 -55 -7 -68 -2 -21 8
-217 11 -503 9 -63 0 -128 -6 -143 -12 -21 -8 -34 -8 -55 2 -41 19 -219 22
-257 4 -28 -13 -36 -13 -71 2 -46 19 -146 22 -198 4 -29 -9 -40 -9 -52 1 -9 7
-39 11 -77 10 -93 -4 -94 -4 -212 9 -60 6 -164 10 -230 9 -66 -2 -156 2 -200
9 -44 6 -146 13 -227 15 -84 2 -152 8 -160 14 -12 10 -144 29 -151 21 -1 -2
-15 7 -31 19 -21 17 -33 20 -47 13 -14 -8 -22 -5 -37 10 -10 11 -28 21 -40 23
-12 2 -25 7 -29 11 -10 10 -11 336 0 343 31 19 -46 23 -424 23 l-419 0 0 -595z
m3716 211 c24 -49 44 -97 43 -105 0 -10 -5 -6 -12 9 -6 14 -32 70 -59 125 -26
55 -41 91 -32 80 9 -11 36 -60 60 -109z"/>
<path d="M866 1182 c-3 -5 1 -9 9 -9 8 0 12 4 9 9 -3 4 -7 8 -9 8 -2 0 -6 -4
-9 -8z"/>
<path d="M863 1107 c0 -8 6 -14 14 -14 9 0 10 4 2 14 -6 7 -12 13 -14 13 -1 0
-2 -6 -2 -13z"/>
<path d="M863 1027 c0 -8 6 -14 14 -14 9 0 10 4 2 14 -6 7 -12 13 -14 13 -1 0
-2 -6 -2 -13z"/>
<path d="M4067 1019 c-94 -22 -181 -89 -224 -173 -27 -54 -46 -196 -25 -196
18 0 136 68 256 147 72 47 97 60 71 37 -57 -51 -191 -138 -252 -164 -29 -12
-53 -26 -53 -31 0 -15 84 -32 153 -31 145 2 267 96 335 258 12 28 23 71 24 95
l3 43 -50 12 c-59 14 -184 16 -238 3z"/>
<path d="M863 947 c0 -8 6 -14 14 -14 9 0 10 4 2 14 -6 7 -12 13 -14 13 -1 0
-2 -6 -2 -13z"/>
<path d="M863 867 c0 -8 6 -14 14 -14 9 0 10 4 2 14 -6 7 -12 13 -14 13 -1 0
-2 -6 -2 -13z"/>
<path d="M863 147 c0 -8 6 -14 14 -14 9 0 10 4 2 14 -6 7 -12 13 -14 13 -1 0
-2 -6 -2 -13z"/>
<path d="M863 67 c0 -8 6 -14 14 -14 9 0 10 4 2 14 -6 7 -12 13 -14 13 -1 0
-2 -6 -2 -13z"/>
</g>
</svg>
